# xmcd
#
# Track frame offsets: 
#        150
#        1696
#        16523
#        39632
#        74096
#        95220
#        109183
#        125459
#        144720
#        157924
#        165116
#        183269
#        208232
#        223686
#        246224
#        266129
#        287448
#        309708
#
# Disc length: 4288 seconds
#
# Revision: 0
# Processed by: cddbd v1.5.2PL0 Copyright (c) Steve Scherf et al.
# Submitted via: ExactAudioCopy v0.95b1
#
DISCID=0010be12
DTITLE=Gregor Hilden - Gregor Hilden  ¹2
DYEAR=2006
DGENRE=Blues
TTITLE0=Welcome
TTITLE1=I Wonder Why
TTITLE2=I've Got To Use My Imagination
TTITLE3=I Love You More Than You'll Ever Know
TTITLE4=Soul Serenade
TTITLE5=Who's Been Talkin'
TTITLE6=New-York Blues
TTITLE7=Alabama Blues
TTITLE8=Second Hand Blues
TTITLE9=Junkie Case
TTITLE10=Slabo Days
TTITLE11=One More Time
TTITLE12=Westcoast Blues
TTITLE13=Give Me Strength
TTITLE14=Cadillac Assembly Line
TTITLE15=Proud Pinto
TTITLE16=Beale Street Strut
TTITLE17=Harlem Stomp
EXTD=
EXTT0=
EXTT1=
EXTT2=
EXTT3=
EXTT4=
EXTT5=
EXTT6=
EXTT7=
EXTT8=
EXTT9=
EXTT10=
EXTT11=
EXTT12=
EXTT13=
EXTT14=
EXTT15=
EXTT16=
EXTT17=
PLAYORDER=
